<svg xmlns="http://www.w3.org/2000/svg" xmlns:xlink="http://www.w3.org/1999/xlink" zoomAndPan="magnify" preserveAspectRatio="xMidYMid meet" version="1.0" viewBox="2.74 140.42 328.44 101.4"><defs><g/></defs><g fill="#ffffff" fill-opacity="1"><g transform="translate(97.47456, 214.137991)"><g><path d="M -0.046875 -3.875 C 1.171875 -3.875 2.363281 -4.472656 3.53125 -5.671875 C 4.695312 -6.878906 5.675781 -8.507812 6.46875 -10.5625 C 6.425781 -11.0625 6.40625 -11.5625 6.40625 -12.0625 C 6.40625 -14.789062 6.941406 -17.210938 8.015625 -19.328125 C 9.097656 -21.453125 10.5625 -23.125 12.40625 -24.34375 C 14.257812 -25.5625 16.375 -26.171875 18.75 -26.171875 C 20 -26.171875 21.234375 -25.925781 22.453125 -25.4375 C 23.679688 -24.957031 24.707031 -24.304688 25.53125 -23.484375 L 25.53125 -25.6875 C 25.851562 -25.800781 26.226562 -25.890625 26.65625 -25.953125 C 27.09375 -26.023438 27.539062 -26.0625 28 -26.0625 C 28.863281 -26.0625 29.675781 -25.9375 30.4375 -25.6875 L 30.4375 14.75 C 30.4375 19.132812 29.671875 22.382812 28.140625 24.5 C 26.617188 26.625 24.171875 27.6875 20.796875 27.6875 C 18.273438 27.6875 16.207031 26.8125 14.59375 25.0625 C 12.976562 23.320312 12.171875 21.035156 12.171875 18.203125 C 12.171875 11.597656 16.710938 5.421875 25.796875 -0.328125 L 25.796875 -2.6875 C 24.796875 -1.613281 23.613281 -0.769531 22.25 -0.15625 C 20.882812 0.445312 19.394531 0.75 17.78125 0.75 C 15.695312 0.75 13.851562 0.289062 12.25 -0.625 C 10.65625 -1.539062 9.351562 -2.804688 8.34375 -4.421875 C 6.125 -0.972656 3.195312 0.75 -0.4375 0.75 C -0.894531 0.75 -1.269531 0.535156 -1.5625 0.109375 C -1.851562 -0.316406 -2 -0.875 -2 -1.5625 C -2 -3.101562 -1.347656 -3.875 -0.046875 -3.875 Z M 11.421875 -12.0625 C 11.421875 -9.507812 12.003906 -7.503906 13.171875 -6.046875 C 14.335938 -4.597656 15.941406 -3.875 17.984375 -3.875 C 20.242188 -3.875 22.066406 -4.707031 23.453125 -6.375 C 24.835938 -8.050781 25.53125 -10.253906 25.53125 -12.984375 L 25.53125 -18.3125 C 24.8125 -19.28125 23.894531 -20.0625 22.78125 -20.65625 C 21.664062 -21.25 20.515625 -21.546875 19.328125 -21.546875 C 17.785156 -21.546875 16.421875 -21.128906 15.234375 -20.296875 C 14.054688 -19.472656 13.125 -18.351562 12.4375 -16.9375 C 11.757812 -15.519531 11.421875 -13.894531 11.421875 -12.0625 Z M 16.90625 17.984375 C 16.90625 19.597656 17.265625 20.863281 17.984375 21.78125 C 18.703125 22.695312 19.691406 23.15625 20.953125 23.15625 C 22.640625 23.15625 23.867188 22.445312 24.640625 21.03125 C 25.410156 19.613281 25.796875 17.519531 25.796875 14.75 L 25.796875 5.21875 C 19.867188 9.382812 16.90625 13.640625 16.90625 17.984375 Z M 16.90625 17.984375 "/></g></g></g><g fill="#ffffff" fill-opacity="1"><g transform="translate(134.792956, 214.137991)"><g><path d="M -0.046875 -3.875 C 1.171875 -3.875 2.363281 -4.472656 3.53125 -5.671875 C 4.695312 -6.878906 5.675781 -8.507812 6.46875 -10.5625 C 6.425781 -11.0625 6.40625 -11.5625 6.40625 -12.0625 C 6.40625 -14.789062 6.941406 -17.210938 8.015625 -19.328125 C 9.097656 -21.453125 10.5625 -23.125 12.40625 -24.34375 C 14.257812 -25.5625 16.375 -26.171875 18.75 -26.171875 C 20 -26.171875 21.234375 -25.925781 22.453125 -25.4375 C 23.679688 -24.957031 24.707031 -24.304688 25.53125 -23.484375 L 25.53125 -25.6875 C 25.851562 -25.800781 26.226562 -25.890625 26.65625 -25.953125 C 27.09375 -26.023438 27.539062 -26.0625 28 -26.0625 C 28.863281 -26.0625 29.675781 -25.9375 30.4375 -25.6875 L 30.4375 -9.90625 C 30.4375 -8.007812 30.726562 -6.53125 31.3125 -5.46875 C 31.90625 -4.40625 32.90625 -3.875 34.3125 -3.875 C 34.914062 -3.875 35.328125 -3.625 35.546875 -3.125 C 35.765625 -2.625 35.875 -2.085938 35.875 -1.515625 C 35.875 -0.929688 35.71875 -0.410156 35.40625 0.046875 C 35.101562 0.515625 34.613281 0.75 33.9375 0.75 C 30.414062 0.75 28.0625 -0.828125 26.875 -3.984375 C 25.832031 -2.515625 24.53125 -1.359375 22.96875 -0.515625 C 21.40625 0.328125 19.675781 0.75 17.78125 0.75 C 15.695312 0.75 13.851562 0.289062 12.25 -0.625 C 10.65625 -1.539062 9.351562 -2.804688 8.34375 -4.421875 C 6.125 -0.972656 3.195312 0.75 -0.4375 0.75 C -0.894531 0.75 -1.269531 0.535156 -1.5625 0.109375 C -1.851562 -0.316406 -2 -0.875 -2 -1.5625 C -2 -3.101562 -1.347656 -3.875 -0.046875 -3.875 Z M 11.421875 -12.0625 C 11.421875 -9.507812 12.003906 -7.503906 13.171875 -6.046875 C 14.335938 -4.597656 15.941406 -3.875 17.984375 -3.875 C 20.242188 -3.875 22.066406 -4.707031 23.453125 -6.375 C 24.835938 -8.050781 25.53125 -10.253906 25.53125 -12.984375 L 25.53125 -18.3125 C 24.8125 -19.28125 23.894531 -20.0625 22.78125 -20.65625 C 21.664062 -21.25 20.515625 -21.546875 19.328125 -21.546875 C 17.785156 -21.546875 16.421875 -21.128906 15.234375 -20.296875 C 14.054688 -19.472656 13.125 -18.351562 12.4375 -16.9375 C 11.757812 -15.519531 11.421875 -13.894531 11.421875 -12.0625 Z M 11.421875 -12.0625 "/></g></g></g><g fill="#ffffff" fill-opacity="1"><g transform="translate(169.14958, 214.137991)"><g><path d="M -0.4375 0.75 C -0.894531 0.75 -1.269531 0.535156 -1.5625 0.109375 C -1.851562 -0.316406 -2 -0.875 -2 -1.5625 C -2 -3.101562 -1.347656 -3.875 -0.046875 -3.875 C 1.523438 -3.875 2.929688 -4.53125 4.171875 -5.84375 C 5.410156 -7.15625 6.394531 -8.941406 7.125 -11.203125 C 7.863281 -13.460938 8.234375 -15.976562 8.234375 -18.75 C 8.234375 -19.394531 8.195312 -19.984375 8.125 -20.515625 C 8.0625 -21.054688 7.972656 -21.503906 7.859375 -21.859375 C 7.535156 -22.191406 7.1875 -22.710938 6.8125 -23.421875 C 6.4375 -24.140625 6.113281 -24.90625 5.84375 -25.71875 C 5.570312 -26.53125 5.4375 -27.1875 5.4375 -27.6875 C 5.875 -28.363281 6.566406 -28.890625 7.515625 -29.265625 C 8.460938 -29.648438 9.515625 -29.75 10.671875 -29.5625 C 11.347656 -28.3125 11.898438 -26.734375 12.328125 -24.828125 C 13.410156 -24.867188 14.867188 -25.101562 16.703125 -25.53125 C 17.847656 -25.78125 18.769531 -25.945312 19.46875 -26.03125 C 20.164062 -26.125 20.769531 -26.171875 21.28125 -26.171875 C 23.21875 -26.171875 24.738281 -25.441406 25.84375 -23.984375 C 26.957031 -22.535156 27.515625 -20.570312 27.515625 -18.09375 L 27.515625 -9.421875 C 27.515625 -7.335938 27.789062 -5.890625 28.34375 -5.078125 C 28.90625 -4.273438 29.726562 -3.875 30.8125 -3.875 C 31.3125 -3.875 31.695312 -3.65625 31.96875 -3.21875 C 32.238281 -2.789062 32.375 -2.222656 32.375 -1.515625 C 32.375 -0.929688 32.21875 -0.410156 31.90625 0.046875 C 31.601562 0.515625 31.113281 0.75 30.4375 0.75 C 28.238281 0.75 26.382812 0.00390625 24.875 -1.484375 C 23.375 -2.972656 22.625 -5.421875 22.625 -8.828125 L 22.625 -17.1875 C 22.625 -18.800781 22.441406 -19.929688 22.078125 -20.578125 C 21.722656 -21.222656 21.078125 -21.546875 20.140625 -21.546875 C 19.816406 -21.546875 19.457031 -21.507812 19.0625 -21.4375 C 18.664062 -21.363281 17.96875 -21.21875 16.96875 -21 C 15.207031 -20.644531 13.878906 -20.429688 12.984375 -20.359375 C 13.015625 -19.785156 13.03125 -19.210938 13.03125 -18.640625 C 13.03125 -14.753906 12.472656 -11.359375 11.359375 -8.453125 C 10.242188 -5.546875 8.671875 -3.285156 6.640625 -1.671875 C 4.617188 -0.0546875 2.257812 0.75 -0.4375 0.75 Z M -0.4375 0.75 "/></g></g></g><g fill="#ffffff" fill-opacity="1"><g transform="translate(200.005912, 214.137991)"><g><path d="M -0.046875 -3.875 C 1.171875 -3.875 2.363281 -4.472656 3.53125 -5.671875 C 4.695312 -6.878906 5.675781 -8.507812 6.46875 -10.5625 C 6.425781 -11.0625 6.40625 -11.5625 6.40625 -12.0625 C 6.40625 -14.789062 6.941406 -17.210938 8.015625 -19.328125 C 9.097656 -21.453125 10.5625 -23.125 12.40625 -24.34375 C 14.257812 -25.5625 16.375 -26.171875 18.75 -26.171875 C 20 -26.171875 21.234375 -25.925781 22.453125 -25.4375 C 23.679688 -24.957031 24.707031 -24.304688 25.53125 -23.484375 L 25.53125 -45.234375 C 26.207031 -45.492188 27.03125 -45.625 28 -45.625 C 28.832031 -45.625 29.644531 -45.492188 30.4375 -45.234375 L 30.4375 -9.421875 C 30.4375 -7.335938 30.710938 -5.890625 31.265625 -5.078125 C 31.816406 -4.273438 32.632812 -3.875 33.71875 -3.875 C 34.21875 -3.875 34.601562 -3.65625 34.875 -3.21875 C 35.144531 -2.789062 35.28125 -2.222656 35.28125 -1.515625 C 35.28125 -0.929688 35.125 -0.410156 34.8125 0.046875 C 34.507812 0.515625 34.019531 0.75 33.34375 0.75 C 31.863281 0.75 30.515625 0.410156 29.296875 -0.265625 C 28.078125 -0.953125 27.144531 -2.03125 26.5 -3.5 C 25.457031 -2.175781 24.191406 -1.132812 22.703125 -0.375 C 21.210938 0.375 19.570312 0.75 17.78125 0.75 C 15.695312 0.75 13.851562 0.289062 12.25 -0.625 C 10.65625 -1.539062 9.351562 -2.804688 8.34375 -4.421875 C 6.125 -0.972656 3.195312 0.75 -0.4375 0.75 C -0.894531 0.75 -1.269531 0.535156 -1.5625 0.109375 C -1.851562 -0.316406 -2 -0.875 -2 -1.5625 C -2 -3.101562 -1.347656 -3.875 -0.046875 -3.875 Z M 11.421875 -12.0625 C 11.421875 -9.507812 12.003906 -7.503906 13.171875 -6.046875 C 14.335938 -4.597656 15.941406 -3.875 17.984375 -3.875 C 20.242188 -3.875 22.066406 -4.707031 23.453125 -6.375 C 24.835938 -8.050781 25.53125 -10.253906 25.53125 -12.984375 L 25.53125 -18.3125 C 24.8125 -19.28125 23.894531 -20.0625 22.78125 -20.65625 C 21.664062 -21.25 20.515625 -21.546875 19.328125 -21.546875 C 17.785156 -21.546875 16.421875 -21.128906 15.234375 -20.296875 C 14.054688 -19.472656 13.125 -18.351562 12.4375 -16.9375 C 11.757812 -15.519531 11.421875 -13.894531 11.421875 -12.0625 Z M 11.421875 -12.0625 "/></g></g></g><g fill="#ffffff" fill-opacity="1"><g transform="translate(233.770174, 214.137991)"><g><path d="M -0.4375 0.75 C -0.894531 0.75 -1.269531 0.535156 -1.5625 0.109375 C -1.851562 -0.316406 -2 -0.875 -2 -1.5625 C -2 -3.101562 -1.347656 -3.875 -0.046875 -3.875 C 0.992188 -3.875 2.050781 -4.046875 3.125 -4.390625 C 4.195312 -4.734375 5.453125 -5.316406 6.890625 -6.140625 C 5.492188 -8.578125 4.796875 -11.445312 4.796875 -14.75 C 4.796875 -16.976562 5.207031 -18.945312 6.03125 -20.65625 C 6.851562 -22.363281 8 -23.707031 9.46875 -24.6875 C 10.945312 -25.675781 12.617188 -26.171875 14.484375 -26.171875 C 16.066406 -26.171875 17.46875 -25.800781 18.6875 -25.0625 C 19.90625 -24.332031 20.851562 -23.320312 21.53125 -22.03125 C 22.21875 -20.738281 22.5625 -19.25 22.5625 -17.5625 C 22.5625 -15.257812 21.890625 -13.15625 20.546875 -11.25 C 19.203125 -9.351562 16.929688 -7.289062 13.734375 -5.0625 C 14.878906 -4.238281 16.421875 -3.828125 18.359375 -3.828125 C 18.867188 -3.828125 19.265625 -3.609375 19.546875 -3.171875 C 19.835938 -2.742188 19.984375 -2.171875 19.984375 -1.453125 C 19.984375 -0.773438 19.820312 -0.238281 19.5 0.15625 C 19.175781 0.550781 18.707031 0.75 18.09375 0.75 C 16.375 0.75 14.757812 0.460938 13.25 -0.109375 C 11.738281 -0.679688 10.484375 -1.472656 9.484375 -2.484375 C 6.035156 -0.328125 2.726562 0.75 -0.4375 0.75 Z M 9.484375 -15.1875 C 9.484375 -12.351562 9.984375 -10.09375 10.984375 -8.40625 C 13.316406 -10.019531 15.046875 -11.597656 16.171875 -13.140625 C 17.304688 -14.679688 17.875 -16.15625 17.875 -17.5625 C 17.875 -18.851562 17.5625 -19.863281 16.9375 -20.59375 C 16.3125 -21.332031 15.441406 -21.703125 14.328125 -21.703125 C 12.921875 -21.703125 11.757812 -21.070312 10.84375 -19.8125 C 9.9375 -18.5625 9.484375 -17.019531 9.484375 -15.1875 Z M 9.484375 -15.1875 "/></g></g></g><g fill="#ffffff" fill-opacity="1"><g transform="translate(257.572099, 214.137991)"><g><path d="M -0.4375 0.75 C -0.894531 0.75 -1.269531 0.535156 -1.5625 0.109375 C -1.851562 -0.316406 -2 -0.875 -2 -1.5625 C -2 -3.101562 -1.347656 -3.875 -0.046875 -3.875 C 1.097656 -3.875 2.128906 -4.457031 3.046875 -5.625 C 3.960938 -6.789062 4.757812 -8.738281 5.4375 -11.46875 L 7.0625 -17.78125 C 8.5625 -23.375 11.429688 -26.171875 15.671875 -26.171875 C 17.285156 -26.171875 18.648438 -25.695312 19.765625 -24.75 C 20.878906 -23.800781 21.648438 -22.515625 22.078125 -20.890625 C 23.085938 -22.578125 24.378906 -23.878906 25.953125 -24.796875 C 27.535156 -25.710938 29.296875 -26.171875 31.234375 -26.171875 C 34.035156 -26.171875 36.195312 -25.253906 37.71875 -23.421875 C 39.25 -21.597656 40.015625 -19.035156 40.015625 -15.734375 L 40.015625 -9.421875 C 40.015625 -7.335938 40.289062 -5.890625 40.84375 -5.078125 C 41.40625 -4.273438 42.222656 -3.875 43.296875 -3.875 C 43.804688 -3.875 44.191406 -3.65625 44.453125 -3.21875 C 44.722656 -2.789062 44.859375 -2.222656 44.859375 -1.515625 C 44.859375 -0.929688 44.707031 -0.410156 44.40625 0.046875 C 44.101562 0.515625 43.609375 0.75 42.921875 0.75 C 40.734375 0.75 38.882812 0.00390625 37.375 -1.484375 C 35.863281 -2.972656 35.109375 -5.421875 35.109375 -8.828125 L 35.109375 -15.734375 C 35.109375 -19.609375 33.582031 -21.546875 30.53125 -21.546875 C 28.957031 -21.546875 27.566406 -20.914062 26.359375 -19.65625 C 25.160156 -18.40625 24.226562 -16.664062 23.5625 -14.4375 C 22.894531 -12.207031 22.5625 -9.617188 22.5625 -6.671875 L 22.5625 0 C 22.207031 0.101562 21.8125 0.191406 21.375 0.265625 C 20.945312 0.335938 20.535156 0.375 20.140625 0.375 C 19.273438 0.375 18.46875 0.25 17.71875 0 L 17.71875 -17.1875 C 17.71875 -20.09375 16.894531 -21.546875 15.25 -21.546875 C 14.488281 -21.546875 13.835938 -21.203125 13.296875 -20.515625 C 12.765625 -19.835938 12.300781 -18.742188 11.90625 -17.234375 L 9.90625 -9.484375 C 8.976562 -5.921875 7.6875 -3.320312 6.03125 -1.6875 C 4.382812 -0.0625 2.226562 0.75 -0.4375 0.75 Z M -0.4375 0.75 "/></g></g></g><g fill="#ffffff" fill-opacity="1"><g transform="translate(300.921756, 214.137991)"><g><path d="M -0.4375 0.75 C -0.894531 0.75 -1.269531 0.535156 -1.5625 0.109375 C -1.851562 -0.316406 -2 -0.875 -2 -1.5625 C -2 -3.101562 -1.347656 -3.875 -0.046875 -3.875 C 1.097656 -3.875 2.367188 -4.582031 3.765625 -6 C 5.171875 -7.414062 6.804688 -9.707031 8.671875 -12.875 L 14.4375 -22.625 C 14.363281 -23.125 14.328125 -23.660156 14.328125 -24.234375 C 14.328125 -26.035156 14.65625 -27.363281 15.3125 -28.21875 C 15.976562 -29.082031 16.53125 -29.601562 16.96875 -29.78125 C 17.570312 -29.925781 18.222656 -29.914062 18.921875 -29.75 C 19.628906 -29.59375 20.269531 -29.332031 20.84375 -28.96875 C 21.414062 -28.613281 21.8125 -28.1875 22.03125 -27.6875 C 21.882812 -27.039062 21.613281 -26.265625 21.21875 -25.359375 C 20.820312 -24.460938 20.191406 -23.265625 19.328125 -21.765625 C 19.585938 -21.367188 19.910156 -20.972656 20.296875 -20.578125 C 20.691406 -20.179688 21.179688 -19.75 21.765625 -19.28125 L 25.859375 -15.9375 C 27.328125 -14.757812 28.425781 -13.53125 29.15625 -12.25 C 29.894531 -10.976562 30.265625 -9.550781 30.265625 -7.96875 C 30.265625 -6.0625 29.726562 -4.375 28.65625 -2.90625 C 28.832031 -2.507812 28.921875 -2.046875 28.921875 -1.515625 C 28.921875 -0.828125 28.75 -0.28125 28.40625 0.125 C 28.070312 0.539062 27.597656 0.75 26.984375 0.75 C 26.410156 0.75 25.851562 0.710938 25.3125 0.640625 C 24.769531 0.566406 24.175781 0.476562 23.53125 0.375 C 22.5625 0.625 21.539062 0.75 20.46875 0.75 C 19.207031 0.75 17.945312 0.5625 16.6875 0.1875 C 15.4375 -0.1875 14.128906 -0.785156 12.765625 -1.609375 C 12.691406 -3.515625 13.410156 -4.914062 14.921875 -5.8125 C 16.890625 -4.519531 18.753906 -3.875 20.515625 -3.875 C 22.023438 -3.875 23.226562 -4.273438 24.125 -5.078125 C 25.019531 -5.890625 25.46875 -6.925781 25.46875 -8.1875 C 25.46875 -9.769531 24.609375 -11.242188 22.890625 -12.609375 L 18.796875 -15.828125 C 18.078125 -16.410156 17.429688 -17.003906 16.859375 -17.609375 L 11.46875 -8.515625 C 9.5 -5.171875 7.601562 -2.789062 5.78125 -1.375 C 3.96875 0.0390625 1.894531 0.75 -0.4375 0.75 Z M -0.4375 0.75 "/></g></g></g><path stroke-linecap="butt" transform="matrix(1.262431, 0, 0, 1.262431, 2.142301, 121.726634)" fill="none" stroke-linejoin="miter" d="M 7.452666 36.044599 L 2.025391 40.791144 C 3.850985 42.257807 5.862233 43.396483 8.05604 44.207171 C 10.249848 45.020952 12.443655 45.426296 14.637462 45.426296 C 18.783727 45.469615 21.983158 44.798168 24.241944 43.418143 C 26.497636 42.035023 27.627029 40.064 27.627029 37.50198 C 27.627029 35.633066 27.200025 34.172591 26.346019 33.11746 C 25.492012 32.062328 24.384278 31.279489 23.022818 30.772035 C 21.661358 30.267676 20.216354 29.921123 18.6909 29.741657 C 17.16854 29.556004 15.729724 29.4508 14.368264 29.429141 C 13.006804 29.407481 11.899071 29.348691 11.045064 29.25277 C 10.191057 29.147566 9.764054 28.912405 9.764054 28.544191 C 9.764054 27.612829 11.289508 27.148695 14.337322 27.148695 C 16.772479 27.148695 19.090055 27.962477 21.283863 29.586946 L 26.708043 24.82493 C 25.126893 23.327324 23.23632 22.170083 21.042513 21.359395 C 18.848706 20.545614 16.512564 20.14027 14.034088 20.14027 C 9.887823 20.14027 6.697675 20.830283 4.463642 22.213402 C 2.226516 23.593428 1.1095 25.539697 1.1095 28.055304 C 1.1095 29.887086 1.536503 31.33209 2.39051 32.387222 C 3.244517 33.442353 4.35225 34.225193 5.71371 34.729552 C 7.072076 35.237005 8.513986 35.574276 10.036346 35.741364 C 11.5618 35.902264 13.006804 35.991997 14.368264 36.010562 C 15.729724 36.032222 16.837458 36.106483 17.691465 36.230252 C 18.545471 36.347833 18.972475 36.629408 18.972475 37.074976 C 18.972475 37.928983 17.425361 38.355987 14.337322 38.355987 C 13.198646 38.355987 12.029028 38.164144 10.825374 37.783555 C 9.631002 37.393682 8.507798 36.815061 7.452666 36.044599 Z M 56.632316 32.814225 C 56.632316 33.259794 56.588997 33.727022 56.505453 34.219005 C 56.421909 34.707892 56.341459 35.172027 56.267198 35.617595 L 40.300984 35.617595 C 40.904358 37.28229 41.95949 38.114637 43.466379 38.114637 C 44.645279 38.114637 45.459061 37.545299 45.90463 36.406623 L 55.713331 38.052752 C 54.819099 40.407459 53.293645 42.236148 51.143157 43.541912 C 48.989575 44.841487 46.390424 45.488181 43.34261 45.488181 C 39.118989 45.488181 35.860768 44.383542 33.561757 42.168075 C 31.262746 39.952608 30.114788 36.833627 30.114788 32.814225 C 30.114788 28.751505 31.262746 25.623241 33.561757 23.429434 C 35.860768 21.235626 39.118989 20.14027 43.34261 20.14027 C 47.569324 20.14027 50.839923 21.235626 53.151311 23.429434 C 55.471981 25.623241 56.632316 28.751505 56.632316 32.814225 Z M 46.455402 30.555439 C 45.641621 28.485401 44.605054 27.451929 43.34261 27.451929 C 41.634596 27.451929 40.536145 28.485401 40.050352 30.555439 Z M 85.813975 35.917735 L 76.432278 34.333491 C 75.986709 36.446848 74.749018 37.50198 72.713016 37.50198 C 71.61766 37.50198 70.763653 37.093542 70.150996 36.282854 C 69.547622 35.469072 69.244387 34.314926 69.244387 32.814225 C 69.244387 31.267112 69.547622 30.085117 70.150996 29.274429 C 70.763653 28.460647 71.61766 28.055304 72.713016 28.055304 C 74.749018 28.055304 75.986709 29.113529 76.432278 31.229981 L 85.813975 29.636454 C 85.328181 26.597922 83.957439 24.252498 81.701747 22.606369 C 79.452244 20.963334 76.457031 20.14027 72.713016 20.14027 C 68.49249 20.14027 65.231174 21.235626 62.932163 23.429434 C 60.636247 25.623241 59.485194 28.751505 59.485194 32.814225 C 59.485194 36.833627 60.636247 39.952608 62.932163 42.168075 C 65.231174 44.383542 68.49249 45.488181 72.713016 45.488181 C 76.413712 45.488181 79.390359 44.655834 81.639862 42.991139 C 83.895554 41.323351 85.287956 38.965549 85.813975 35.917735 Z M 106.109013 20.14027 C 107.693257 20.14027 109.175392 20.493012 110.558512 21.20159 C 111.938537 21.910168 113.036988 23.039561 113.847675 24.586675 L 107.089883 30.855579 C 105.867663 29.197073 104.363868 28.367821 102.578499 28.367821 C 101.724492 28.367821 101.003537 28.924781 100.41254 30.044892 C 99.821543 31.155719 99.385256 32.767812 99.100588 34.887358 L 99.100588 44.999293 L 89.226908 44.999293 L 89.226908 20.619875 L 99.100588 20.619875 L 99.100588 24.462906 C 100.523932 21.656441 102.860074 20.214531 106.109013 20.14027 Z M 142.308379 32.814225 C 142.308379 33.259794 142.268154 33.727022 142.18461 34.219005 C 142.101066 34.707892 142.020616 35.172027 141.94326 35.617595 L 125.977047 35.617595 C 126.583515 37.28229 127.638647 38.114637 129.145536 38.114637 C 130.324436 38.114637 131.138218 37.545299 131.580693 36.406623 L 141.392488 38.052752 C 140.498256 40.407459 138.972802 42.236148 136.81922 43.541912 C 134.668732 44.841487 132.066486 45.488181 129.018672 45.488181 C 124.798146 45.488181 121.53683 44.383542 119.240914 42.168075 C 116.941903 39.952608 115.79085 36.833627 115.79085 32.814225 C 115.79085 28.751505 116.941903 25.623241 119.240914 23.429434 C 121.53683 21.235626 124.798146 20.14027 129.018672 20.14027 C 133.248481 20.14027 136.51908 21.235626 138.830467 23.429434 C 141.148044 25.623241 142.308379 28.751505 142.308379 32.814225 Z M 132.134559 30.555439 C 131.320778 28.485401 130.284211 27.451929 129.018672 27.451929 C 127.310659 27.451929 126.215302 28.485401 125.729509 30.555439 Z M 169.054881 37.687633 L 161.746316 34.69861 C 161.619452 36.567523 160.66643 37.50198 158.881061 37.50198 C 157.866154 37.50198 157.06475 37.115201 156.473752 36.344739 C 155.885849 35.574276 155.588803 34.497485 155.588803 33.11746 L 155.588803 29.701433 L 160.589075 29.701433 L 160.589075 22.389773 L 155.588803 22.389773 L 155.588803 15.443233 L 145.715123 15.443233 L 145.715123 34.949242 C 145.715123 38.315762 146.702182 40.918007 148.673205 42.74979 C 150.647322 44.575384 153.438315 45.488181 157.046184 45.488181 C 160.749974 45.488181 163.633794 44.810545 165.703832 43.449085 C 167.780059 42.087625 168.897075 40.16611 169.054881 37.687633 Z M 169.054881 37.687633 " stroke="#ffffff" stroke-width="1.600001" stroke-opacity="1" stroke-miterlimit="4"/></svg>